inDegrees=no
num_controls=7
num_derivatives=13
num_iterations=88
num_multipliers=7
num_parameters=0
num_slacks=7
num_states=26
objective=0.444948
objective_accelerations=0.058339
objective_balance=0.003559
objective_effort=0.023205
objective_height=0.354366
objective_ligament=0.005478
solver_duration=1268.173134
status=Solve_Succeeded
success=true
DataType=double
version=3
OpenSimVersion=4.5
endheader
time	/jointset/ground_pelvis/pelvis_tilt/value	/jointset/ground_pelvis/pelvis_tx/value	/jointset/ground_pelvis/pelvis_ty/value	/jointset/hip_l/hip_flexion_l/value	/jointset/hip_l/hip_adduction_l/value	/jointset/hip_l/hip_rotation_l/value	/jointset/back/lumbar_extension/value	/jointset/patellofemoral_l/patellar_flexion_l/value	/jointset/knee_l/knee_flexion_l/value	/jointset/knee_l/knee_adduction_l/value	/jointset/knee_l/knee_rotation_l/value	/jointset/ankle_l/ankle_angle_l/value	/jointset/subtalar_l/subtalar_angle_l/value	/jointset/ground_pelvis/pelvis_tilt/speed	/jointset/ground_pelvis/pelvis_tx/speed	/jointset/ground_pelvis/pelvis_ty/speed	/jointset/hip_l/hip_flexion_l/speed	/jointset/hip_l/hip_adduction_l/speed	/jointset/hip_l/hip_rotation_l/speed	/jointset/back/lumbar_extension/speed	/jointset/patellofemoral_l/patellar_flexion_l/speed	/jointset/knee_l/knee_flexion_l/speed	/jointset/knee_l/knee_adduction_l/speed	/jointset/knee_l/knee_rotation_l/speed	/jointset/ankle_l/ankle_angle_l/speed	/jointset/subtalar_l/subtalar_angle_l/speed	/forceset/tau_hip_flexion_l	/forceset/tau_hip_adduction_l	/forceset/tau_hip_rotation_l	/forceset/tau_knee_flexion_l	/forceset/tau_ankle_angle_l	/forceset/tau_subtalar_angle_l	/forceset/tau_lumbar_extension	lambda_cid13_p0	lambda_cid13_p1	lambda_cid13_p2	lambda_cid13_p3	lambda_cid13_p4	lambda_cid13_p5	lambda_cid14_p0	/jointset/ground_pelvis/pelvis_tilt/accel	/jointset/ground_pelvis/pelvis_tx/accel	/jointset/ground_pelvis/pelvis_ty/accel	/jointset/hip_l/hip_flexion_l/accel	/jointset/hip_l/hip_adduction_l/accel	/jointset/hip_l/hip_rotation_l/accel	/jointset/back/lumbar_extension/accel	/jointset/patellofemoral_l/patellar_flexion_l/accel	/jointset/knee_l/knee_flexion_l/accel	/jointset/knee_l/knee_adduction_l/accel	/jointset/knee_l/knee_rotation_l/accel	/jointset/ankle_l/ankle_angle_l/accel	/jointset/subtalar_l/subtalar_angle_l/accel	gamma_cid13_p0	gamma_cid13_p1	gamma_cid13_p2	gamma_cid13_p3	gamma_cid13_p4	gamma_cid13_p5	gamma_cid14_p0
1.5	-0.3673336092259338	-0.02502081943360156	0.7589827566874786	1.116691960108966	-0.4337216374717555	-0.2081614342077656	-0.2250917338166823	0.8172839479308835	0.8172839479308397	-0.1246212139006604	-0.1441429432778292	0.1323251785888244	-0.01552580468923231	0.6790137198991745	0.2684162936367076	0.5458974315114411	-2.482965656956649	0.2090844159849187	-0.7163864365495222	0.3175576690981359	-2.050952007549988	-2.050952007549964	-0.1429963403607138	0.1392052077279629	-0.4156940785639566	0.0260083854596175	-0.1721390494735623	0.02655923446392836	-0.009180899998292157	-0.211979333660051	0.05219513780993677	0.0418177484739342	0.166832387598788	-15.35814243466115	-18.29607924339404	5.806357618881349	-9.985140610507703	-520.0390465729198	-60.52592304488861	-24.31450346380194	0.6702644163701281	0.7582262234528078	-0.5190506444615011	-1.364061366428069	0.6965153469392412	-0.2334217962463244	1.474929681263475	-1.354527801602689	-1.354527801602645	0.1311401218455717	0.1991347902555056	-0.4767560072390216	0.5146317493214173	5.634303306830851e-07	2.106565731387619e-07	-3.593315460986617e-06	-2.229798606248171e-07	8.228883643811533e-07	-9.939945269174558e-08	5.049359261763742e-07
1.51	-0.3605100038424368	-0.02229898212810492	0.7644146706724271	1.091795695719673	-0.4315978199968629	-0.2153330128918075	-0.2218439775488357	0.7967088955104811	0.7967088955104417	-0.126050140348395	-0.1427405768143166	0.1281445295968184	-0.01524227383777434	0.6855998247068735	0.2759178257550235	0.5403651721232907	-2.495932925828447	0.2156475525546211	-0.7177868338406298	0.3319422111840041	-2.063768218686536	-2.063768218686544	-0.1428241437325103	0.1412836120505021	-0.4203620988186007	0.03069225231410555	-0.1656510120705972	0.02523542773890519	-0.008897977565705617	-0.2096315059873633	0.05299489778267723	0.04124973438214587	0.1615707115577699	-14.87338362653882	-18.14142622875337	5.789876386315266	-10.026952908006	-515.844612019476	-60.88553991502793	-25.24893219874919	0.6367215225407776	0.7410848004570652	-0.5881711695422798	-1.209831498486021	0.6318554993011084	-0.07148761659976015	1.412510479160678	-1.201731944937735	-1.201731944942511	-0.04506592885602162	0.2138458768314054	-0.450795623582177	0.4447517687564987	5.749772596035713e-07	3.988915312631582e-07	-3.45690673768726e-06	-1.769563727963154e-07	8.454670139359902e-07	6.803481413867004e-09	5.110892689817589e-07
1.52	-0.3536237498089491	-0.0195031358825379	0.7697876905467839	1.066780404271475	-0.4294092426188108	-0.2225142233329713	-0.2184539170587486	0.7760143681436628	0.7760143681436262	-0.1274784099022793	-0.1413170957828634	0.1239194062844647	-0.01491200679472268	0.6915434498974128	0.2832180816507815	0.5341186093931221	-2.506771068737459	0.2220363966169391	-0.7183127879740082	0.3460185135463612	-2.07484699683336	-2.074846996833399	-0.1428649615908566	0.1434281213161734	-0.4245889426334469	0.03535562377835436	-0.1591629746676457	0.02391162101388102	-0.008615055133114037	-0.2072836783146769	0.05379465775541828	0.04068172029035667	0.1563090355167387	-14.39007119828602	-17.98690760956445	5.773861737914936	-10.11435415456799	-511.7018074325999	-61.30893420143684	-26.18253805527167	0.5417684929381549	0.7179709789412616	-0.6619113128651097	-0.9382361738707482	0.6616568454623677	-0.05853316470048318	1.413281736561262	-1.007041203657775	-1.007041203657777	0.0885372245356152	0.2123557788819348	-0.3885207192794059	0.5105326712735772	5.183574375149229e-07	7.884202084145383e-07	-2.745359499734919e-06	-4.538042776977297e-08	7.705060333947582e-07	1.085981914474625e-07	4.716248852246896e-07
1.53	-0.3466813294151433	-0.01663548752212954	0.7750946972856952	1.041667875207226	-0.4271572191890483	-0.2297002451207148	-0.2149245847222932	0.7552182899197142	0.7552182899196344	-0.1289045749859473	-0.1398743449721468	0.1196543618706277	-0.0145345456059182	0.69683935283437	0.29025908087639	0.5271663752771555	-2.5153561828902	0.2283376486073768	-0.7187639322291451	0.3597892245050374	-2.084049701136721	-2.084049701136742	-0.1423784693590226	0.1451205932335153	-0.4283463059067894	0.04013287868573668	-0.1531950572650662	0.02322249656699508	-0.008246803051257369	-0.2039905468981369	0.05322451242215906	0.03979387957797488	0.1513668710287366	-14.36215041641731	-17.60310448572383	5.709128775138675	-9.686033371461615	-507.6391373667	-61.34412249710995	-27.11499002605805	0.508302955872237	0.6893472008401287	-0.7292346684070338	-0.7618657529937007	0.6096354983848081	-0.01895741910553627	1.350156389556757	-0.8291103440515212	-0.829110344048833	0.02741072373257332	0.1472863003757188	-0.3582334820909339	0.4605703162271387	3.893104424790696e-07	1.391823462032086e-06	-1.42272758996379e-06	1.770950030296867e-07	5.919091958764538e-07	2.057091634045399e-07	3.836916669950131e-07
1.54	-0.3396889896396075	-0.01369899260817123	0.780328710641958	1.016480851658046	-0.4248431280148693	-0.2368868888236463	-0.2112593071534444	0.7343397395926604	0.7343397395925315	-0.1303261340470605	-0.1384147507618033	0.1153539659539115	-0.01410946218488856	0.7015273262432349	0.2969873923607724	0.5195199328634039	-2.521669965723662	0.2344499454998238	-0.7184371710116896	0.3732075600251529	-2.091341417455132	-2.091341417455136	-0.1419437570781739	0.1467968012394737	-0.4316592432093018	0.04488007022338322	-0.1472271398624876	0.02253337212011937	-0.007878550969476407	-0.2006974154815898	0.05265436708890218	0.03890603886560152	0.1464247065407289	-14.33633846612795	-17.22223656970595	5.648638838202338	-9.289612738375007	-503.6247661019981	-61.41310152914869	-28.04664317307467	0.4201825873196783	0.6554334306961019	-0.8007529724221017	-0.4839699100149751	0.6238658258642052	0.09704792981799473	1.342806648849113	-0.624843606667884	-0.6248436066679144	0.07818123433855521	0.2091029966052419	-0.2996355251133762	0.5045199973264258	3.545430347780336e-07	1.716529615006228e-06	-9.314239431056705e-07	2.75912770809062e-07	5.548242723165674e-07	2.927816054150069e-07	3.617920546713444e-07
1.55	-0.3326528271938984	-0.01069675114968256	0.7854829612400688	0.991241524460876	-0.4224691766618456	-0.2440662319575244	-0.207462020841784	0.7133974480934234	0.7133974480933962	-0.1317444726308433	-0.1369384204654565	0.1110225943150304	-0.01363745619499385	0.7055803949641349	0.3034093918647982	0.511226733703131	-2.525813618302601	0.2403114376131185	-0.7173671710992546	0.3861731008833701	-2.096802861702417	-2.096802861702447	-0.1416868971915425	0.1484326134217859	-0.4345298749811807	0.04952801311122662	-0.1407394308342642	0.02099311465165545	-0.007608134323697913	-0.1986427496279395	0.05350158050004116	0.03800295971054798	0.1410999680658425	-13.88032416731865	-16.90894807351403	5.59763387084249	-9.204841381227707	-499.960905516977	-61.64638410471353	-28.97845624005212	0.3791646250716255	0.6278986897310129	-0.8589711933210294	-0.3222629090128953	0.5629454341988273	0.122035584597741	1.261937590761773	-0.4597809454811473	-0.4597809454850008	0.005213967145364557	0.1349528333871347	-0.2679390640628061	0.4458821876227129	4.284021081366724e-07	1.720128238978203e-06	-1.397955033951616e-06	2.322554051087826e-07	6.807856844044147e-07	3.682879150956843e-07	4.159746404567676e-07
1.56	-0.3255798749388625	-0.007631826600258605	0.7905512062854786	0.9659722207424777	-0.4200374794816633	-0.251232863179748	-0.2035373771642512	0.6924099449293681	0.6924099449294449	-0.1331590874954884	-0.1354469055464251	0.1066650839462629	-0.01311878062559881	0.7088852881088947	0.3095240105478299	0.5023188223232091	-2.527665269968715	0.2459991109318831	-0.7158947886811603	0.3986790331997385	-2.100383750418594	-2.100383750418649	-0.1411990132521135	0.1498337257778165	-0.4368869891865656	0.05421398612344751	-0.1342517218060537	0.01945285718319311	-0.007337717677881576	-0.1965880837742921	0.05434879391118266	0.03709988055549989	0.135775229590942	-13.42392186613106	-16.59903815543475	5.550950043786796	-9.166271817906114	-496.3097317220197	-61.92779073591127	-29.9114589706886	0.2705474720916337	0.5939572664973121	-0.9236954163518801	-0.02556972744959014	0.5891020669581961	0.1775244309498782	1.250884940479337	-0.2487325004460869	-0.248732500446095	0.1243860448980891	0.1621630313489276	-0.1969320118145689	0.5121260222019355	4.460116570077195e-07	1.743698656038475e-06	-1.551865130381708e-06	2.302275320901932e-07	7.103328879509576e-07	4.169103584436386e-07	4.338630104251257e-07
1.57	-0.3184776165552143	-0.004507428510337448	0.7955273356609719	0.9406961561136487	-0.417549749740778	-0.2583827211358306	-0.1994898588298936	0.6713964005457708	0.6713964005457995	-0.1345674601493821	-0.1339424867745181	0.1022866834071809	-0.01255294478541123	0.7114534324307206	0.3152896816304243	0.4928131610670664	-2.527168725848896	0.251502073248897	-0.7139584381198902	0.4107398015733976	-2.102004302329696	-2.102004302329717	-0.1404890461454548	0.1510451352225427	-0.4387143222684087	0.05893802089324381	-0.1283210308613972	0.0182271144271893	-0.007012026232155631	-0.1937330550243549	0.05392362582804821	0.03611827406866162	0.130833496656499	-13.39683544956547	-16.1812747900991	5.488693670616466	-8.697137582794088	-492.9216047184394	-62.07112920660573	-30.8320292237661	0.2330022608239392	0.5580449641978633	-0.977971839432357	0.1441104931846936	0.5240904911023287	0.219804060511877	1.17094797103618	-0.07067105315112626	-0.0706710531458513	0.04252159136055956	0.09961383467903308	-0.1637559892168288	0.4501152632906638	3.933093002692774e-07	1.792233814459121e-06	-1.314998983791988e-06	2.802365249237157e-07	6.193623308208713e-07	4.319279688756894e-07	4.063836106221529e-07
1.58	-0.3113530658586289	-0.001327339122578879	0.8004056143520665	0.9154364257283137	-0.4150083509413171	-0.2655095928479418	-0.1953242777747545	0.650376259739718	0.6503762597397036	-0.135969089222636	-0.1324261571214471	0.09789238513071044	-0.01194035398574125	0.7133437506963843	0.3206622701153123	0.4827486854434448	-2.524398421269596	0.2567329226470867	-0.7112975398867684	0.4222915773561378	-2.10170303490915	-2.101703034909135	-0.1398502971263642	0.1522159020130528	-0.4400665366641573	0.06356497801992811	-0.1223903399167577	0.01700137167117983	-0.006686334786347579	-0.1908780262744276	0.05349845774491161	0.03513666758181397	0.1258917637220426	-13.37764087427574	-15.76597284649738	5.431220578438767	-8.24224825036208	-489.6590143803117	-62.27133268442909	-31.73030014877859	0.1349822608592224	0.5153407469560626	-1.035458289847619	0.4291823644464403	0.5346794831933946	0.3224339653202536	1.149086422295558	0.1356313658838662	0.1356313658838662	0.1101424273844733	0.1540345005056881	-0.1019082745956637	0.4927104935795483	3.474370982066148e-07	1.88180697693761e-06	-1.074778459932108e-06	3.297228385336821e-07	5.456905142068371e-07	4.464421524940169e-07	3.8343973360934e-07
1.59	-0.3042131752774624	0.001904501720710351	0.8051805635780276	0.8902159171387576	-0.4124159102649615	-0.2726071952932125	-0.1910456828889909	0.6293689214461929	0.6293689214461315	-0.137363877593244	-0.1308989393924836	0.09348712770262543	-0.01128172946057296	0.7145083955024824	0.3256387420793319	0.4721596868294238	-2.519317430895434	0.261709218991834	-0.7081230092192892	0.4333403401728915	-2.09943626186911	-2.099436261869094	-0.139100666410115	0.1532118462503964	-0.4408936776676768	0.06815187476619212	-0.1163622266004038	0.01549601715759483	-0.006425415425399307	-0.1884784586762277	0.05373125888119384	0.03398991056356444	0.1208939623767915	-13.17038252792147	-15.3086236568485	5.363329771112921	-7.921488673684276	-486.6898290722523	-62.38736392577459	-32.60063974124991	0.08828792458096388	0.4788084654666057	-1.082748468802411	0.6054190475375928	0.4720118057951848	0.3302720780632418	1.069712267794745	0.3213832329012009	0.3213832329013219	0.05870128996799743	0.06980526225061258	-0.05935605133412353	0.4402144176680677	3.108343917753667e-07	2.027074573494597e-06	-8.300055669198678e-07	3.784998017688225e-07	4.954955597217296e-07	4.602731140080058e-07	3.666512089546009e-07
